<?xml version="1.0" encoding="UTF-8" standalone="no"?>
<!DOCTYPE svg PUBLIC "-//W3C//DTD SVG 1.1//EN" "http://www.w3.org/Graphics/SVG/1.1/DTD/svg11.dtd">
<svg width="100%" height="100%" viewBox="0 0 2195 1591" version="1.1" xmlns="http://www.w3.org/2000/svg" xmlns:xlink="http://www.w3.org/1999/xlink" xml:space="preserve" xmlns:serif="http://www.serif.com/" style="fill-rule:evenodd;clip-rule:evenodd;stroke-linejoin:round;stroke-miterlimit:2;">
    <g id="Artboard1" transform="matrix(1.072825,0,0,0.777615,0,0)">
        <rect x="0" y="0" width="2046" height="2046" style="fill:none;"/>
        <g id="surface1" transform="matrix(0,-1.285984,0.932118,0,1.237663,2341.776241)">
            <path d="M1200.32,358.73L836.133,358.73L804.762,282.348C777.48,218.238 754.293,158.223 722.922,76.383C716.102,58.652 706.551,40.922 677.906,40.922C636.988,42.285 474.672,84.566 388.738,218.238C350.547,278.258 324.633,347.82 323.27,422.84L323.27,1634.07C323.27,1718.641 381.922,2002.352 952.07,2002.352L1246.695,2002.352C1512.676,2006.445 1721.367,1833.215 1722.73,1539.957L1722.73,844.316C1722.73,587.883 1533.137,358.73 1200.32,358.73ZM401.016,559.238L401.016,426.934C403.742,259.16 534.688,151.402 651.992,126.852L654.719,129.578L1077.559,1168.949C904.332,1164.855 593.34,1186.68 436.48,1344.902L401.016,1387.188L401.016,769.297L538.781,1099.383C545.602,1113.023 557.875,1119.844 572.879,1119.844C576.973,1119.844 582.43,1119.844 586.52,1117.117C606.98,1110.297 617.891,1087.109 608.344,1063.922L401.016,559.238ZM1640.891,1538.594C1640.891,1750.012 1496.309,1924.605 1242.605,1924.605L946.617,1924.605C684.727,1924.605 401.016,1846.855 401.016,1623.16C401.016,1399.465 634.262,1282.16 849.773,1258.973L849.773,1533.137C851.137,1631.344 926.156,1728.188 1044.824,1728.188L1235.785,1728.188C1358.543,1729.551 1436.293,1635.438 1437.656,1533.137L1437.656,855.227C1437.656,728.375 1344.902,624.711 1233.055,624.711L1050.281,624.711C1016.18,624.711 986.172,632.895 957.527,649.266L867.504,435.117L1200.32,435.117C1381.73,435.117 1640.891,518.32 1640.891,841.59L1640.891,1538.594ZM1078.926,706.551L1235.785,706.551C1318.988,706.551 1361.273,776.117 1361.273,851.137L1361.273,1537.227C1361.273,1595.879 1309.441,1653.168 1239.875,1653.168L1042.098,1653.168C962.984,1651.805 926.156,1583.605 926.156,1533.137L926.156,1246.695C976.625,1242.605 1048.914,1239.875 1126.664,1246.695C1162.129,1249.426 1185.316,1223.508 1171.676,1190.773L986.172,731.105C999.812,714.734 1032.547,706.551 1078.926,706.551Z" style="fill:rgb(222,115,86);fill-rule:nonzero;"/>
            <g transform="matrix(0,1,-1,0,2046,-1.327796)">
                <path d="M1539.922,405.109C1751.34,405.109 1925.933,549.691 1925.933,803.395L1925.933,1099.383C1925.933,1361.273 1848.183,1644.984 1624.488,1644.984C1400.793,1644.984 1283.488,1411.738 1260.3,1196.227L1534.465,1196.227C1632.672,1194.863 1729.515,1119.844 1729.515,1001.176L1729.515,810.215C1730.879,687.457 1636.765,609.707 1534.465,608.344L856.554,608.344C729.703,608.344 626.039,701.098 626.039,812.945L626.039,995.719C626.039,1029.82 634.222,1059.828 650.593,1088.473L436.445,1178.496L436.445,845.68C436.445,664.27 519.648,405.109 842.918,405.109L1539.922,405.109Z" style="fill:rgb(222,115,86);"/>
            </g>
            <g transform="matrix(1,0,0,1,0,42.249671)">
                <path d="M782.938,1036.641C791.121,1054.371 803.395,1065.285 819.766,1065.285C825.219,1065.285 830.676,1063.922 836.133,1062.555C855.227,1054.371 864.777,1032.547 855.227,1012.09L581.062,358.73C572.879,341 552.422,330.09 531.961,336.906C511.5,345.094 500.59,366.914 508.773,388.738L782.938,1036.641Z" style="fill:rgb(222,115,86);fill-rule:nonzero;"/>
            </g>
        </g>
    </g>
</svg>
